<?xml version="1.0" encoding="UTF-8"?>
<svg xmlns="http://www.w3.org/2000/svg" width="849" height="37">
   <defs>
      <style type="text/css">
    @namespace "http://www.w3.org/2000/svg";
    .line                 {fill: none; stroke: #332900; stroke-width: 1;}
    .bold-line            {stroke: #141000; shape-rendering: crispEdges; stroke-width: 2;}
    .thin-line            {stroke: #1F1800; shape-rendering: crispEdges}
    .filled               {fill: #332900; stroke: none;}
    text.terminal         {font-family: Verdana, Sans-serif;
                            font-size: 12px;
                            fill: #141000;
                            font-weight: bold;
                          }
    text.nonterminal      {font-family: Verdana, Sans-serif;
                            font-size: 12px;
                            fill: #1A1400;
                            font-weight: normal;
                          }
    text.regexp           {font-family: Verdana, Sans-serif;
                            font-size: 12px;
                            fill: #1F1800;
                            font-weight: normal;
                          }
    rect, circle, polygon {fill: #332900; stroke: #332900;}
    rect.terminal         {fill: #FFDB4D; stroke: #332900; stroke-width: 1;}
    rect.nonterminal      {fill: #FFEC9E; stroke: #332900; stroke-width: 1;}
    rect.text             {fill: none; stroke: none;}
    polygon.regexp        {fill: #FFF4C7; stroke: #332900; stroke-width: 1;}
  </style>
   </defs>
   <polygon points="9 17 1 13 1 21"/>
   <polygon points="17 17 9 13 9 21"/>
   <rect x="31" y="3" width="48" height="32" rx="10"/>
   <rect x="29"
          y="1"
          width="48"
          height="32"
          class="terminal"
          rx="10"/>
   <text class="terminal" x="39" y="21">FOR</text>
   <a xmlns:xlink="http://www.w3.org/1999/xlink"
       xlink:href="#Identifier"
       xlink:title="Identifier">
      <rect x="99" y="3" width="78" height="32"/>
      <rect x="97" y="1" width="78" height="32" class="nonterminal"/>
      <text class="nonterminal" x="107" y="21">Identifier</text>
   </a>
   <rect x="197" y="3" width="30" height="32" rx="10"/>
   <rect x="195"
          y="1"
          width="30"
          height="32"
          class="terminal"
          rx="10"/>
   <text class="terminal" x="205" y="21">=</text>
   <a xmlns:xlink="http://www.w3.org/1999/xlink"
       xlink:href="#Expression"
       xlink:title="Expression">
      <rect x="247" y="3" width="90" height="32"/>
      <rect x="245" y="1" width="90" height="32" class="nonterminal"/>
      <text class="nonterminal" x="255" y="21">Expression</text>
   </a>
   <rect x="357" y="3" width="38" height="32" rx="10"/>
   <rect x="355"
          y="1"
          width="38"
          height="32"
          class="terminal"
          rx="10"/>
   <text class="terminal" x="365" y="21">TO</text>
   <a xmlns:xlink="http://www.w3.org/1999/xlink"
       xlink:href="#Expression"
       xlink:title="Expression">
      <rect x="415" y="3" width="90" height="32"/>
      <rect x="413" y="1" width="90" height="32" class="nonterminal"/>
      <text class="nonterminal" x="423" y="21">Expression</text>
   </a>
   <rect x="525" y="3" width="40" height="32" rx="10"/>
   <rect x="523"
          y="1"
          width="40"
          height="32"
          class="terminal"
          rx="10"/>
   <text class="terminal" x="533" y="21">DO</text>
   <a xmlns:xlink="http://www.w3.org/1999/xlink"
       xlink:href="#ListOfStatements"
       xlink:title="ListOfStatements">
      <rect x="585" y="3" width="130" height="32"/>
      <rect x="583" y="1" width="130" height="32" class="nonterminal"/>
      <text class="nonterminal" x="593" y="21">ListOfStatements</text>
   </a>
   <rect x="735" y="3" width="86" height="32" rx="10"/>
   <rect x="733"
          y="1"
          width="86"
          height="32"
          class="terminal"
          rx="10"/>
   <text class="terminal" x="743" y="21">END_FOR</text>
   <path class="line"
          d="m17 17 h2 m0 0 h10 m48 0 h10 m0 0 h10 m78 0 h10 m0 0 h10 m30 0 h10 m0 0 h10 m90 0 h10 m0 0 h10 m38 0 h10 m0 0 h10 m90 0 h10 m0 0 h10 m40 0 h10 m0 0 h10 m130 0 h10 m0 0 h10 m86 0 h10 m3 0 h-3"/>
   <polygon points="839 17 847 13 847 21"/>
   <polygon points="839 17 831 13 831 21"/>
</svg>
