<?xml version="1.0" encoding="UTF-8"?>
<svg xmlns="http://www.w3.org/2000/svg" width="483" height="125">
   <defs>
      <style type="text/css">
    @namespace "http://www.w3.org/2000/svg";
    .line                 {fill: none; stroke: #332900; stroke-width: 1;}
    .bold-line            {stroke: #141000; shape-rendering: crispEdges; stroke-width: 2;}
    .thin-line            {stroke: #1F1800; shape-rendering: crispEdges}
    .filled               {fill: #332900; stroke: none;}
    text.terminal         {font-family: Verdana, Sans-serif;
                            font-size: 12px;
                            fill: #141000;
                            font-weight: bold;
                          }
    text.nonterminal      {font-family: Verdana, Sans-serif;
                            font-size: 12px;
                            fill: #1A1400;
                            font-weight: normal;
                          }
    text.regexp           {font-family: Verdana, Sans-serif;
                            font-size: 12px;
                            fill: #1F1800;
                            font-weight: normal;
                          }
    rect, circle, polygon {fill: #332900; stroke: #332900;}
    rect.terminal         {fill: #FFDB4D; stroke: #332900; stroke-width: 1;}
    rect.nonterminal      {fill: #FFEC9E; stroke: #332900; stroke-width: 1;}
    rect.text             {fill: none; stroke: none;}
    polygon.regexp        {fill: #FFF4C7; stroke: #332900; stroke-width: 1;}
  </style>
   </defs>
   <polygon points="9 17 1 13 1 21"/>
   <polygon points="17 17 9 13 9 21"/>
   <rect x="51" y="3" width="26" height="32" rx="10"/>
   <rect x="49"
          y="1"
          width="26"
          height="32"
          class="terminal"
          rx="10"/>
   <text class="terminal" x="59" y="21">(</text>
   <a xmlns:xlink="http://www.w3.org/1999/xlink"
       xlink:href="#Expression"
       xlink:title="Expression">
      <rect x="97" y="3" width="90" height="32"/>
      <rect x="95" y="1" width="90" height="32" class="nonterminal"/>
      <text class="nonterminal" x="105" y="21">Expression</text>
   </a>
   <rect x="207" y="3" width="26" height="32" rx="10"/>
   <rect x="205"
          y="1"
          width="26"
          height="32"
          class="terminal"
          rx="10"/>
   <text class="terminal" x="215" y="21">)</text>
   <a xmlns:xlink="http://www.w3.org/1999/xlink"
       xlink:href="#Operand"
       xlink:title="Operand">
      <rect x="51" y="47" width="74" height="32"/>
      <rect x="49" y="45" width="74" height="32" class="nonterminal"/>
      <text class="nonterminal" x="59" y="65">Operand</text>
   </a>
   <a xmlns:xlink="http://www.w3.org/1999/xlink"
       xlink:href="#Subexpression"
       xlink:title="Subexpression">
      <rect x="51" y="91" width="114" height="32"/>
      <rect x="49" y="89" width="114" height="32" class="nonterminal"/>
      <text class="nonterminal" x="59" y="109">Subexpression</text>
   </a>
   <a xmlns:xlink="http://www.w3.org/1999/xlink"
       xlink:href="#BinaryOperator"
       xlink:title="BinaryOperator">
      <rect x="185" y="91" width="116" height="32"/>
      <rect x="183" y="89" width="116" height="32" class="nonterminal"/>
      <text class="nonterminal" x="193" y="109">BinaryOperator</text>
   </a>
   <a xmlns:xlink="http://www.w3.org/1999/xlink"
       xlink:href="#Subexpression"
       xlink:title="Subexpression">
      <rect x="321" y="91" width="114" height="32"/>
      <rect x="319" y="89" width="114" height="32" class="nonterminal"/>
      <text class="nonterminal" x="329" y="109">Subexpression</text>
   </a>
   <path class="line"
          d="m17 17 h2 m20 0 h10 m26 0 h10 m0 0 h10 m90 0 h10 m0 0 h10 m26 0 h10 m0 0 h202 m-424 0 h20 m404 0 h20 m-444 0 q10 0 10 10 m424 0 q0 -10 10 -10 m-434 10 v24 m424 0 v-24 m-424 24 q0 10 10 10 m404 0 q10 0 10 -10 m-414 10 h10 m74 0 h10 m0 0 h310 m-414 -10 v20 m424 0 v-20 m-424 20 v24 m424 0 v-24 m-424 24 q0 10 10 10 m404 0 q10 0 10 -10 m-414 10 h10 m114 0 h10 m0 0 h10 m116 0 h10 m0 0 h10 m114 0 h10 m23 -88 h-3"/>
   <polygon points="473 17 481 13 481 21"/>
   <polygon points="473 17 465 13 465 21"/>
</svg>
